<?xml version="1.0" encoding="UTF-8"?>
<svg width="49px" height="49px" viewBox="0 0 49 49" version="1.1" xmlns="http://www.w3.org/2000/svg" xmlns:xlink="http://www.w3.org/1999/xlink">
    <!-- Generator: sketchtool 57.1 (101010) - https://sketch.com -->
    <title>E027ABEB-7E2A-4246-9936-9F06860A8A2A</title>
    <desc>Created with sketchtool.</desc>
    <g id="Done" stroke="none" stroke-width="1" fill="none" fill-rule="evenodd">
        <g id="Nossas-ações" transform="translate(-537.000000, -617.000000)" fill="#000000" fill-rule="nonzero">
            <g id="Group-18" transform="translate(245.000000, 604.000000)">
                <g id="Group-9" transform="translate(225.000000, 13.000000)">
                    <g id="icons8-handicapped" transform="translate(66.000000, 0.000000)">
                        <path d="M43.6170213,0 C40.1055521,0 37.2340426,2.87525502 37.2340426,6.39130435 C37.2340426,9.90735367 40.1055521,12.7826087 43.6170213,12.7826087 C47.1284904,12.7826087 50,9.90735367 50,6.39130435 C50,2.87525502 47.1284904,0 43.6170213,0 Z M43.6170213,2.13043478 C45.9815489,2.13043478 47.8723404,4.02369252 47.8723404,6.39130435 C47.8723404,8.75891617 45.9815489,10.6521739 43.6170213,10.6521739 C41.2524936,10.6521739 39.3617021,8.75891617 39.3617021,6.39130435 C39.3617021,4.02369252 41.2524936,2.13043478 43.6170213,2.13043478 Z M25.9973404,3.22894022 C24.6924872,3.29135557 23.4167223,3.81564172 22.4069149,4.76019022 L13.2978723,13.7146739 C11.7852394,15.2043144 11.806017,17.6967558 13.331117,19.173913 C14.7731053,20.5678501 17.0794553,20.5678501 18.5505319,19.2072011 L26.0638298,12.25 L29.2220745,14.8131793 L25.4986702,19.173913 C20.0132979,19.1863963 15.2385309,22.186481 12.6662234,26.6304348 L6.38297872,26.6304348 C6.34973404,26.6304348 6.31648936,26.6304348 6.28324468,26.6304348 C5.69730745,26.6595621 5.24019255,27.1588827 5.26928191,27.7455842 C5.29837128,28.3322857 5.79704149,28.7899969 6.38297872,28.7608696 L18.0851064,28.7608696 C18.4674202,28.7650303 18.8248011,28.565302 19.0201128,28.2324216 C19.2112702,27.8995412 19.2112702,27.4917632 19.0201128,27.1588827 C18.8248011,26.8260023 18.4674202,26.626274 18.0851064,26.6304348 L15.1928191,26.6304348 C17.5116362,23.4056553 21.2682851,21.3043478 25.5319149,21.3043478 C32.5714766,21.3043478 38.2978723,27.0382138 38.2978723,34.0869565 C38.2978723,41.1357003 32.5714766,46.8695652 25.5319149,46.8695652 C22.3071809,46.8695652 19.3691819,45.6545516 17.1210106,43.673913 L14.1289894,43.673913 C16.8633649,46.9278198 20.9649266,49 25.5319149,49 C29.0226064,49 32.2307181,47.793309 34.7739362,45.7710598 C35.1271606,46.1954829 35.5676532,46.5408455 36.1037234,46.7697011 C37.9030915,47.5394868 40.0432181,46.703125 40.8244681,44.9055707 L44.8470745,35.5849185 C45.8942819,33.1756961 44.8138298,30.3337302 42.4202128,29.2601902 L38.9960106,27.7289402 C38.4557851,26.5888253 37.7992021,25.4944806 37.0013298,24.533288 L40.3257979,19.90625 C42.2290564,17.2723338 41.7054521,13.560717 39.1289894,11.5842391 L29.7207447,4.39402174 C28.6236702,3.55349917 27.3021947,3.16652487 25.9973404,3.22894022 Z M26.1303191,5.359375 C26.9406585,5.32192622 27.7717755,5.5674258 28.4574468,6.09171196 L37.8324468,13.2819293 C39.5113032,14.5718416 39.8728394,16.9269701 38.6303191,18.6413043 L35.4720745,23.002038 C33.4441489,21.1795182 30.9175532,19.9020893 28.125,19.4069293 L31.5824468,15.3790761 C31.7694479,15.1585431 31.856716,14.8672722 31.8276266,14.5760023 C31.7943819,14.2888932 31.6447809,14.0267496 31.4162234,13.8478261 L26.662234,10.0529891 C26.2591426,9.73259198 25.6856713,9.74507526 25.2992021,10.0862772 L17.1210106,17.642663 C16.4644287,18.2501704 15.4712436,18.2335263 14.8271277,17.609375 C14.1414564,16.9477749 14.1165223,15.9158455 14.793883,15.2459239 L23.8696809,6.29144022 L23.9029255,6.29144022 C24.5387298,5.70889946 25.3199798,5.39682378 26.1303191,5.359375 Z M39.9933511,30.5251359 L41.5226064,31.2241848 C42.8773277,31.8316921 43.4757319,33.3920683 42.8856383,34.7527174 L38.8630319,44.0400815 C38.5388968,44.7849018 37.7160904,45.1261037 36.9680851,44.8057065 C36.7229053,44.7016817 36.5234372,44.5310807 36.3696809,44.3396739 C38.8921213,41.668309 40.4255319,38.0482337 40.4255319,34.0869565 C40.4255319,32.8552989 40.2759309,31.6694126 39.9933511,30.5251359 Z M11.0039894,30.8913043 C10.850233,31.5861925 10.7588096,32.2977247 10.7047872,33.0217391 L2.12765957,33.0217391 C2.09441489,33.0217391 2.06117021,33.0217391 2.02792553,33.0217391 C1.4419883,33.0508664 0.984873404,33.5501871 1.01396277,34.1368886 C1.04305213,34.7235901 1.54172234,35.1813012 2.12765957,35.1521739 L23.4042553,35.1521739 C23.7865691,35.1563347 24.14395,34.9566064 24.3392617,34.623726 C24.5304191,34.2908455 24.5304191,33.8830675 24.3392617,33.5501871 C24.14395,33.2173067 23.7865691,33.0175784 23.4042553,33.0217391 L12.8324468,33.0217391 C12.8989362,32.2894022 13.0194479,31.5820318 13.1981383,30.8913043 L11.0039894,30.8913043 Z M11.0039894,37.2826087 C11.1660574,38.0191064 11.3696809,38.7223171 11.6356383,39.4130435 L7.44680851,39.4130435 C7.41356383,39.4130435 7.38031915,39.4130435 7.34707447,39.4130435 C6.76113723,39.4421708 6.30402234,39.9414914 6.3331117,40.5281929 C6.36220106,41.1148944 6.86087128,41.5726056 7.44680851,41.5434783 L18.0851064,41.5434783 C18.4674202,41.547639 18.8248011,41.3479107 19.0201128,41.0150303 C19.2112702,40.6821499 19.2112702,40.2743719 19.0201128,39.9414914 C18.8248011,39.608611 18.4674202,39.4088827 18.0851064,39.4130435 L13.962766,39.4130435 C13.6469415,38.7306386 13.3892957,38.0274289 13.1981383,37.2826087 L11.0039894,37.2826087 Z" id="Shape"></path>
                    </g>
                </g>
            </g>
        </g>
    </g>
</svg>