<?xml version="1.0" encoding="UTF-8"?>
<svg width="67px" height="42px" viewBox="0 0 67 42" version="1.1" xmlns="http://www.w3.org/2000/svg" xmlns:xlink="http://www.w3.org/1999/xlink">
    <!-- Generator: sketchtool 57.1 (101010) - https://sketch.com -->
    <title>A2184F97-95EA-4537-9D40-61F723778CB8</title>
    <desc>Created with sketchtool.</desc>
    <g id="Done" stroke="none" stroke-width="1" fill="none" fill-rule="evenodd">
        <g id="Nossas-ações" transform="translate(-772.000000, -440.000000)" fill="#000000" fill-rule="nonzero">
            <g id="Group-15" transform="translate(336.000000, 417.000000)">
                <g id="Group-10" transform="translate(421.000000, 23.000000)">
                    <g id="breakfast" transform="translate(15.000000, 0.000000)">
                        <path d="M64.0556641,32.3887147 L63.7862777,32.3887147 C64.4860687,31.4202831 64.8050384,30.3191614 64.6864471,29.1774099 C64.4201278,26.6125832 61.9332886,24.0508425 59.6693192,22.2173541 C59.6754532,22.2029536 59.6820984,22.1864959 59.6882324,22.1720954 C59.9806213,21.450529 59.8216476,20.6178732 59.2813416,20.0511119 C58.8499146,19.59904 58.3663483,19.16034 57.8454666,18.747355 C57.4196624,18.4099726 56.802681,18.4835179 56.4673539,18.9119318 C56.1315154,19.3403458 56.2046127,19.9611089 56.6304168,20.2984914 C57.0812683,20.6559317 57.496849,21.0334296 57.8705139,21.4263567 C57.7912826,21.622306 57.6910934,21.8640282 57.5735245,22.1422658 C56.6774445,24.2514204 54.3490677,29.364616 51.6465149,32.3887147 L48.4103012,32.3887147 C48.8805771,31.2197052 49.4075928,29.220097 49.999527,25.6616379 C50.497406,22.6689116 50.880783,19.5131514 51.1154098,17.3865106 C51.7456818,17.6050892 52.4776765,17.8889842 53.2449417,18.247453 C53.3788681,18.3096835 53.5189286,18.3389988 53.6569442,18.3389988 C54.0275422,18.3389988 54.3822937,18.1271063 54.5484237,17.7665801 C54.7764054,17.2718212 54.5622253,16.6850019 54.0704803,16.455623 C53.0394516,15.9742359 52.0677185,15.6162813 51.2922745,15.3632445 C51.2314453,14.6720219 50.8117752,14.0507445 50.17128,13.7498776 C48.7798767,13.0931132 45.733818,11.990963 40.9574508,11.9817055 C39.3539124,11.9847914 37.9461517,12.1113097 36.7300797,12.3031445 L36.7300797,9.19367163 C36.7300797,6.61650173 34.6460418,4.51969044 32.0845719,4.51969044 L27.5458984,4.51969044 L27.5458984,0.987460815 C27.5458984,0.442300157 27.1068039,0 26.5644531,0 L12.6279297,0 C12.085579,0 11.6464844,0.442300157 11.6464844,0.987460815 C11.6464844,1.53262147 12.085579,1.97492163 12.6279297,1.97492163 L25.5830078,1.97492163 L25.5830078,17.6842917 C24.5453338,18.3369417 23.5281067,19.1186815 22.6356048,20.0521404 C22.0963211,20.6183875 21.9373474,21.450529 22.2297363,22.1720954 C22.2358704,22.1864959 22.2425155,22.2029536 22.2486496,22.2178683 C20.2009049,23.8754654 17.9732284,26.1286246 17.3685149,28.4388715 L5.36523438,28.4388715 C5.04064175,28.4388715 4.77636719,28.1729771 4.77636719,27.846395 L4.77636719,1.97492163 L8.375,1.97492163 C8.91735074,1.97492163 9.35644531,1.53262147 9.35644531,0.987460815 C9.35644531,0.442300157 8.91735074,0 8.375,0 L3.79492188,0 C3.25257114,0 2.81347656,0.442300157 2.81347656,0.987460815 L2.81347656,27.846395 C2.81347656,29.104379 3.71824639,30.1520132 4.90722656,30.3700774 L4.90722656,32.3887147 L2.94433594,32.3887147 C1.32086182,32.3887147 0,33.7176724 0,35.3510972 C0,36.9845219 1.32086182,38.3134796 2.94433594,38.3134796 L3.86035156,38.3134796 L3.86035156,38.6426332 C3.86035156,40.4941223 5.35705566,42 7.19726562,42 L59.8027344,42 C61.6429443,42 63.1396484,40.4941223 63.1396484,38.6426332 L63.1396484,38.3134796 L64.0556641,38.3134796 C65.6791382,38.3134796 67,36.9845219 67,35.3510972 C67,33.7176724 65.6791382,32.3887147 64.0556641,32.3887147 Z M58.8601379,24.1043299 C61.1910706,26.0725657 62.5865632,27.962113 62.7342911,29.3826166 C62.8477707,30.4785953 62.1960296,31.5632592 60.9400863,32.3887147 L54.1834488,32.3887147 C56.1381607,29.7889155 57.7897492,26.4927508 58.8601379,24.1043299 Z M49.3375626,15.5375931 L49.2920685,15.9773216 C49.0901566,17.9203566 48.6638412,21.7123089 48.0739518,25.2712823 C47.1011963,31.1410169 46.3523331,32.2236237 46.2015381,32.3887147 L35.7159195,32.3887147 C35.5625687,32.2195092 34.8147278,31.1297022 33.844017,25.2712823 C33.2541275,21.7123089 32.827301,17.9203566 32.6253891,15.9768074 L32.6177215,15.9006906 C32.6177215,15.8986334 32.6172104,15.8960619 32.6172104,15.8940047 L32.5804062,15.5375931 C33.5817871,15.0649491 36.4029312,13.9653702 40.9569397,13.9561129 C45.5150375,13.964856 48.3356705,15.0649491 49.3375626,15.5375931 Z M27.5694123,6.49461207 L32.0840607,6.49461207 C33.563385,6.49461207 34.7666779,7.70579451 34.7666779,9.19367163 L34.7666779,12.6996718 C33.9973678,12.8930495 33.3435822,13.1039136 32.8037873,13.3060345 L32.8037873,9.7203174 C32.8037873,9.03115204 32.2461014,8.4695337 31.5606232,8.4695337 L27.5694123,8.4695337 L27.5694123,6.49461207 Z M30.8408967,10.4444553 L30.8408967,14.6241918 C30.7703552,14.7599677 30.7156601,14.903458 30.6783447,15.0526058 L27.5458984,15.0526058 L27.5458984,10.4444553 L30.8408967,10.4444553 Z M27.0142822,19.1171386 C27.0485306,19.0996522 27.0822677,19.080623 27.1139603,19.058508 C27.1175384,19.0559365 27.1216277,19.0538793 27.1257171,19.0513078 C28.419487,18.298369 29.7291031,17.757837 30.8025589,17.3859962 C31.0371857,19.5126371 31.4205627,22.6689116 31.9184417,25.6616379 C32.5108871,29.220097 33.0373917,31.2197052 33.5076676,32.3887147 L30.2740097,32.3887147 C27.5637894,29.359473 25.2384797,24.2503918 24.3449554,22.1432945 C24.2268753,21.8640282 24.1266861,21.622306 24.0510331,21.4201851 C24.9338226,20.4970122 25.966385,19.7373873 27.0142822,19.1171386 Z M23.0573197,24.1048442 C24.126175,26.4912078 25.7767411,29.786344 27.7355423,32.3887147 L20.9272766,32.3887147 C19.745964,31.5941174 19.1105804,30.5475118 19.1760101,29.4808483 C19.1775436,29.4494759 19.1800994,29.4181034 19.1836776,29.3826166 C19.3314056,27.962113 20.7268982,26.0730799 23.0573197,24.1048442 Z M6.87011719,30.4137931 L17.274971,30.4137931 C17.3961182,31.1096444 17.6828842,31.7761804 18.116867,32.3887147 L6.87011719,32.3887147 L6.87011719,30.4137931 Z M64.0556641,36.338558 L12.5788574,36.338558 C12.0365067,36.338558 11.5974121,36.7808582 11.5974121,37.3260188 C11.5974121,37.8711795 12.0365067,38.3134796 12.5788574,38.3134796 L61.1767578,38.3134796 L61.1767578,38.6426332 C61.1767578,39.4048295 60.5602874,40.0250784 59.8027344,40.0250784 L7.19726562,40.0250784 C6.43971259,40.0250784 5.82324219,39.4048295 5.82324219,38.6426332 L5.82324219,38.3134796 L8.375,38.3134796 C8.91735074,38.3134796 9.35644531,37.8711795 9.35644531,37.3260188 C9.35644531,36.7808582 8.91735074,36.338558 8.375,36.338558 L2.94433594,36.338558 C2.40300747,36.338558 1.96289062,35.8957436 1.96289062,35.3510972 C1.96289062,34.8064508 2.40300747,34.3636364 2.94433594,34.3636364 L64.0556641,34.3636364 C64.5969925,34.3636364 65.0371094,34.8064508 65.0371094,35.3510972 C65.0371094,35.8957436 64.5969925,36.338558 64.0556641,36.338558 Z" id="Shape"></path>
                    </g>
                </g>
            </g>
        </g>
    </g>
</svg>