<?xml version="1.0" encoding="UTF-8"?>
<svg width="46px" height="58px" viewBox="0 0 46 58" version="1.1" xmlns="http://www.w3.org/2000/svg" xmlns:xlink="http://www.w3.org/1999/xlink">
    <!-- Generator: sketchtool 57.1 (101010) - https://sketch.com -->
    <title>558FC81F-29A9-4835-9F82-417BD5E4A532</title>
    <desc>Created with sketchtool.</desc>
    <g id="Done" stroke="none" stroke-width="1" fill="none" fill-rule="evenodd">
        <g id="Nossas-ações" transform="translate(-595.000000, -424.000000)" fill="#000000" fill-rule="nonzero">
            <g id="Group-15" transform="translate(336.000000, 417.000000)">
                <g id="Group-13" transform="translate(207.000000, 7.000000)">
                    <g id="charity" transform="translate(52.000000, 0.000000)">
                        <path d="M11.7177451,37.7178422 C12.7451709,37.7178422 13.7110998,37.3171781 14.4367855,36.589098 C14.9346173,36.0911459 15.250887,35.4854095 15.418145,34.8487486 L17.4375176,36.8712558 C18.1632032,37.5993359 19.1291322,38 20.1555443,38 C21.1829701,38 22.147998,37.5993359 22.873571,36.8712558 C23.6001577,36.1440787 24,35.1761645 24,34.1476428 C24,33.1181053 23.6001577,32.151094 22.873571,31.423014 L21.1387059,29.6845832 C21.7864504,29.5131441 22.3862139,29.1876468 22.873571,28.6992881 C23.6001577,27.971208 24,27.0041967 24,25.9746593 C24,24.9460247 23.6001577,23.9781105 22.873571,23.2510462 L20.4582981,20.8308093 C21.1070564,20.6593702 21.7068198,20.3338729 22.1940643,19.8455141 C22.920651,19.118337 23.3204933,18.1514386 23.3204933,17.1219011 C23.3204933,16.0923636 22.920651,15.1253523 22.1940643,14.398288 L15.3778228,7.56702139 L15.3778228,0.963061086 C15.3778228,0.431475745 14.9472321,0 14.4167371,0 C13.886242,0 13.4556513,0.431475745 13.4556513,0.963061086 L13.4556513,6.08670858 C12.0629611,5.54349834 10.3694318,5.81707857 9.28152278,6.90632063 C8.08875373,8.10345985 7.86191361,9.88997033 8.56935293,11.3288624 C7.82350622,11.4607994 7.1142648,11.8017589 6.5624824,12.3554654 C5.37838599,13.5430112 5.14580166,15.3121408 5.83398097,16.7462926 C5.08531847,16.8897416 4.39522442,17.2509036 3.84445571,17.8028044 C2.66035929,18.9903502 2.42676128,20.7604955 3.11595427,22.1945345 C2.36627809,22.3379835 1.67719772,22.6991455 1.12642901,23.2510462 C0.399842316,23.9782234 0,24.9461376 0,25.9746593 C0,27.0041967 0.399842316,27.971208 1.12642901,28.6992881 L8.99994368,36.5889852 C9.72540407,37.3171781 10.691333,37.7178422 11.7177451,37.7178422 Z M10.6403109,8.26824002 C11.0036605,7.90515933 11.4860618,7.70482727 11.9993242,7.70482727 C12.5134876,7.70482727 12.9960016,7.90515933 13.3593512,8.26824002 L13.7371178,8.64678296 L20.835051,15.7602074 C21.1984006,16.1243039 21.3982092,16.6076967 21.3982092,17.122014 C21.3982092,17.6363312 21.198288,18.1198369 20.835051,18.4838205 C20.1084643,19.2109976 18.8425973,19.2109976 18.1170243,18.4838205 L10.6404235,10.9928688 C9.89164836,10.241539 9.89164836,9.01945701 10.6403109,8.26824002 Z M7.92127048,13.7173848 C8.28462015,13.3532883 8.76803514,13.1529563 9.28129752,13.1529563 C9.79455989,13.1529563 10.2770738,13.3532883 10.6403109,13.7173848 L21.514445,24.6129656 C21.8777947,24.9770621 22.0776032,25.4604548 22.0776032,25.9747721 C22.0776032,26.4899923 21.877682,26.973498 21.514445,27.3375944 C20.7887594,28.0647716 19.5219913,28.0647716 18.7964183,27.3375944 L14.5674382,23.0999225 L9.28129752,17.8029172 C9.28028383,17.8019014 9.28028383,17.8019014 9.27938278,17.8009985 L7.92127048,16.4411107 C7.17260799,15.6898937 7.17260799,14.4676989 7.92127048,13.7173848 Z M5.20324379,19.1647237 C5.56659346,18.801643 6.04899476,18.601311 6.56327082,18.601311 C7.07551951,18.601311 7.55803345,18.8006273 7.92036943,19.1628051 L13.2084248,24.461729 L21.514445,32.7858363 C21.8777947,33.148917 22.0776032,33.6324226 22.0776032,34.1476428 C22.0776032,34.6619601 21.877682,35.1454657 21.514445,35.5094493 C20.7887594,36.2366265 19.5219913,36.2366265 18.7964183,35.5094493 L14.4387002,31.1436777 C14.4387002,31.142662 14.4376865,31.1417591 14.4367855,31.1407433 L10.4999718,27.1958383 L5.20414484,21.8891268 C4.45458129,21.1381356 4.45458129,19.9159407 5.20324379,19.1647237 Z M1.92194627,25.9747721 C1.92194627,25.4604548 2.12186743,24.9769492 2.4852171,24.6129656 C2.84856676,24.2498849 3.33096807,24.0495529 3.84423044,24.0495529 C4.35839387,24.0495529 4.84090781,24.2498849 5.20324379,24.6129656 L5.75784198,25.1687036 L13.0807006,32.5066129 C13.8265473,33.2578299 13.8265473,34.4770903 13.0777721,35.2274044 C12.3520865,35.9545815 11.0853185,35.9554844 10.3587318,35.2274044 L2.4852171,27.3377073 C2.12186743,26.973498 1.92194627,26.4899923 1.92194627,25.9747721 Z" id="Shape"></path>
                        <path d="M42.0000293,24.0384962 C42.0000293,24.569222 42.4469933,25 43.0000146,25 C43.5519812,25 44,24.569222 44,24.0384962 C44,17.0884678 40.9829342,12.9923017 39.1798433,10.5452165 C38.6538929,9.83082131 37.9999707,8.94233456 37.9999707,8.65387216 L37.9999707,0.961503791 C37.9999707,0.430778037 37.551952,0 36.9999854,0 C36.446964,0 36,0.430778037 36,0.961503791 L36,8.65387216 C36,9.55385233 36.6490002,10.4365924 37.5490222,11.6568109 C39.3209405,14.0635564 42.0000293,17.7000983 42.0000293,24.0384962 Z" id="Path"></path>
                        <path d="M14,54 C13.4480253,54 13,54.4480122 13,54.9999707 L13,57.0000293 C13,57.5519878 13.4480253,58 14,58 C14.5519747,58 15,57.5519878 15,57.0000293 L15,54.9999707 C15,54.4480122 14.5519747,54 14,54 Z" id="Path"></path>
                        <path d="M39.8342407,25.1083338 C37.5845445,23.5839364 30.5186825,19.418959 30.1667121,19.2137692 C29.5277849,18.8899772 28.8180153,18.9347521 28.1694482,19.3430809 C26.7709823,20.2210336 25.9130264,22.631131 25.9130264,23.9727831 C25.9130264,25.8404548 27.2024263,26.9758916 28.5683853,28.1776363 C29.041864,28.5937125 29.5306993,29.0253973 30.0194226,29.5212252 L34.8020727,34.3823213 C35.118734,34.7050879 35.4180209,35.0093978 35.4591588,35.1007705 C35.4764211,35.1552295 35.4783267,35.3622422 35.4783267,35.5654952 C35.2525724,36.1799254 33.4858827,38.2331908 31.9650119,39.7809441 L21.413634,49.5321887 C21.1353084,49.8102944 20.5479437,50.2224969 20.1740032,50.2224969 L11.5653002,50.2224969 C10.5102858,50.2224969 9.65221778,49.3504686 9.65221778,48.2780357 C9.65221778,47.2056027 10.5101737,46.3335745 11.5653002,46.3335745 L18.2609207,46.3335745 C19.5752051,46.3335745 20.7230322,45.2048595 20.8502572,45.0764593 L27.5458777,38.2710159 C27.9189215,37.8909419 27.9189215,37.2763978 27.5458777,36.8963238 C27.171825,36.5161359 26.5664135,36.5161359 26.1933697,36.8963238 L19.5005515,43.6989189 C19.2222259,43.9770246 18.6348613,44.3892272 18.2609207,44.3892272 L11.5653002,44.3892272 L8.69573259,44.3892272 C7.64071811,44.3892272 6.78265012,43.5171989 6.78265012,42.4447659 C6.78265012,41.3724469 7.64060601,40.5003047 8.69573259,40.5003047 L16.3479504,40.5003047 C16.875906,40.5003047 17.3044356,40.0647463 17.3044356,39.5281311 C17.3044356,38.9915158 16.875906,38.5559574 16.3479504,38.5559574 L8.69573259,38.5559574 L5.82616493,38.5559574 C4.77115045,38.5559574 3.91308247,37.6839292 3.91308247,36.6114962 C3.91308247,36.1312768 4.08615327,35.6713372 4.39990014,35.3155305 C4.75287938,34.9149489 4.71936372,34.3005188 4.32625537,33.9417499 C3.93213819,33.582981 3.32762341,33.6179579 2.975653,34.017628 C2.34625369,34.7311782 2,35.6519689 2,36.6114962 C2,38.6162269 3.50461745,40.2514793 5.42341663,40.4595174 C5.07906851,41.0428444 4.86956765,41.7166326 4.86956765,42.4447659 C4.86956765,44.4494967 6.3741851,46.084749 8.29298428,46.2927871 C7.94863617,46.8761141 7.73913531,47.5499023 7.73913531,48.2780357 C7.73913531,50.4227877 9.45515918,52.1668442 11.5651881,52.1668442 L20.1738911,52.1668442 C21.4881755,52.1668442 22.6360026,51.0381293 22.7307207,50.9418575 L33.285013,41.1876507 C37.3914091,37.0139007 37.3914091,35.9795207 37.3914091,35.6392086 C37.3914091,34.3490534 37.2354885,34.1060385 36.1545806,33.0074014 L31.3719305,28.1463053 C30.8353438,27.599892 30.2958426,27.1265085 29.8204584,26.7074701 C28.5099851,25.5534625 27.8261089,24.9079291 27.8261089,23.9726691 C27.8261089,22.7457457 28.8553421,20.9520152 29.2589871,20.9247857 C29.3316231,20.9675099 36.5725735,25.2345695 38.7735095,26.7259269 C41.2470544,28.4019666 44.0870296,31.0406097 44.0870296,36.6113823 C44.0870296,40.784107 40.858766,46.4414672 38.7228437,50.1844439 C37.1962561,52.8589753 36.4626108,54.1841074 36.4626108,55.0833651 L36.4626108,57.0278264 C36.4626108,57.5644416 36.8911404,58 37.419096,58 C37.9470516,58 38.3755812,57.5644416 38.3755812,57.0278264 L38.3755812,55.0940746 C38.4148135,54.6001835 39.4573857,52.7723877 40.377553,51.1604912 C42.7497663,47.0023497 46,41.3080759 46,36.6113823 C46,30.045308 42.4809685,26.9020643 39.8342407,25.1083338 Z" id="Path"></path>
                    </g>
                </g>
            </g>
        </g>
    </g>
</svg>