<?xml version="1.0" encoding="UTF-8"?>
<svg width="68px" height="62px" viewBox="0 0 68 62" version="1.1" xmlns="http://www.w3.org/2000/svg" xmlns:xlink="http://www.w3.org/1999/xlink">
    <!-- Generator: sketchtool 57.1 (101010) - https://sketch.com -->
    <title>D2BFA018-C6B1-44CB-9BBC-353E11A7865E</title>
    <desc>Created with sketchtool.</desc>
    <g id="Done" stroke="none" stroke-width="1" fill="none" fill-rule="evenodd">
        <g id="Nossas-ações" transform="translate(-972.000000, -417.000000)" fill="#000000" fill-rule="nonzero">
            <g id="Group-15" transform="translate(336.000000, 417.000000)">
                <g id="Group-14" transform="translate(581.000000, 0.000000)">
                    <path d="M122.276439,39.1859447 C120.982978,37.2942679 118.378259,36.7935922 116.471603,38.0688086 L107.793634,43.8485208 L107.768399,25.8582941 L110.783243,28.6689779 C111.424329,29.2665373 112.260251,29.5953867 113.137876,29.5953867 C113.13947,29.5953867 113.141329,29.5953867 113.143056,29.5953867 C114.09054,29.5940649 115.005353,29.1988642 115.652946,28.5108976 C116.282079,27.8424928 116.612118,26.9704076 116.582103,26.0549693 C116.552087,25.139531 116.165603,24.2905762 115.49397,23.6644672 L109.778384,18.3359976 C109.387118,17.9711969 108.77286,17.9911552 108.406431,18.3805403 C108.040001,18.7699254 108.060056,19.3810988 108.451188,19.7458995 L114.166774,25.0743691 C114.460024,25.3477053 114.628696,25.7183217 114.641845,26.1178842 C114.65486,26.5174467 114.510892,26.8982405 114.236103,27.1899489 C113.949228,27.4947426 113.560087,27.6628681 113.140134,27.6633968 C113.139337,27.6633968 113.138673,27.6633968 113.137876,27.6633968 C112.754978,27.6633968 112.390142,27.5198556 112.110306,27.2589438 C112.110173,27.2588117 112.110173,27.2588117 112.110173,27.2588117 L89.4149068,6.1005022 C89.0409068,5.75195891 88.4589224,5.7524876 88.0858521,6.10235264 L65.4495549,27.3239735 C65.1572345,27.5981028 64.7750002,27.7416439 64.3733752,27.7305413 C63.9717502,27.7186456 63.5989455,27.5517096 63.3234923,27.2605299 C63.0480392,26.9696146 62.9028751,26.5892173 62.9149611,26.1896548 C62.9269142,25.7899601 63.0946564,25.4189472 63.3869767,25.1448179 L87.7151724,2.33710697 C88.2918443,1.79638243 89.1965631,1.79506069 89.7746959,2.33433131 L104.007813,15.6035609 C104.398946,15.9682294 105.013204,15.9484033 105.379766,15.5590182 C105.746196,15.1696331 105.726141,14.5584597 105.335009,14.193659 L91.102024,0.924429411 C89.777485,-0.310606063 87.7052115,-0.307830405 86.3841255,0.930905945 L78.5961332,8.23220727 L78.5940082,6.92989514 C78.593477,6.51936216 78.4322426,6.13367792 78.1401879,5.84395213 C77.8486644,5.55462287 77.4616488,5.39535299 77.0499301,5.39535299 C77.0491332,5.39535299 77.0484691,5.39535299 77.0476722,5.39535299 L71.4765862,5.40315127 C71.0640706,5.40367996 70.6766565,5.56413941 70.3853987,5.85479041 C70.0942737,6.14544142 69.9341018,6.53152218 69.9347659,6.94218734 L69.9501721,16.3380528 L62.0559298,23.7388813 C61.3860235,24.3668407 61.0020626,25.2168529 60.9745704,26.1322912 C60.9470782,27.0477295 61.2795079,27.9190216 61.9105001,28.5854438 C62.5413595,29.2521304 63.3954767,29.6343781 64.3154689,29.6617381 C64.3506642,29.6627955 64.3858595,29.6633242 64.4210548,29.6633242 C65.3022658,29.6633242 66.1367268,29.3342105 66.7807346,28.7301745 L69.7888049,25.9101064 L69.8007581,34.4077162 C68.827508,34.2666863 67.8428362,34.1926688 66.8536486,34.1926688 L65.1928283,34.1926688 L65.1928283,33.6134815 C65.1928283,31.6690673 63.6031955,30.0870746 61.6493907,30.0870746 L58.5434376,30.0870746 C56.5896328,30.0869424 55,31.6688029 55,33.6133494 L55,48.7496713 C55,49.2831263 55.4345625,49.7156002 55.9705938,49.7156002 C56.506625,49.7156002 56.9411875,49.2831263 56.9411875,48.7496713 L56.9411875,33.6133494 C56.9411875,32.7341268 57.6599688,32.0188001 58.5434376,32.0188001 L61.6492579,32.0188001 C62.5327267,32.0188001 63.251508,32.7341268 63.251508,33.6133494 L63.251508,35.1584655 L63.251508,54.9576279 L63.251508,56.4875439 C63.251508,57.3667665 62.5327267,58.0820932 61.6492579,58.0820932 L58.5434376,58.0820932 C57.6599688,58.0820932 56.9411875,57.3667665 56.9411875,56.4875439 L56.9411875,54.7973006 C56.9411875,54.2638457 56.506625,53.8313718 55.9705938,53.8313718 C55.4345625,53.8313718 55,54.2638457 55,54.7973006 L55,56.4875439 C55,58.4319582 56.5896328,60.0139509 58.5434376,60.0139509 L61.6492579,60.0139509 C63.6030626,60.0139509 65.1926955,58.4320904 65.1926955,56.4875439 L65.1926955,56.356295 L79.4068207,61.7130499 C79.4331176,61.7229629 79.4598129,61.7316864 79.4869067,61.7392204 C80.1048832,61.9128972 80.7225942,62 81.3324692,62 C81.6623755,62 81.9900239,61.9744904 82.314352,61.9234712 L103.203235,58.9268183 C103.208149,58.9261574 103.212931,58.9253644 103.217845,58.9245713 C104.993813,58.6423795 106.669243,57.8951989 108.062845,56.7640523 C108.074931,56.7542714 108.086884,56.744094 108.098438,56.7336522 L121.59365,44.6545189 C123.16522,43.2660292 123.458603,40.9150472 122.276439,39.1859447 Z M76.6533519,7.32787157 L76.6578676,10.0493378 L71.888305,14.5207901 L71.8764847,7.33434811 L76.6533519,7.32787157 Z M88.7531021,8.1306975 L105.824556,24.046054 L105.854173,45.1401268 L103.106149,46.9704748 L100.196095,46.8080327 L100.119196,46.038779 C99.8483914,43.3294728 97.8386726,41.1500529 95.1812272,40.6299475 L95.163696,28.0806707 C95.1623679,27.1176496 94.3745241,26.3350464 93.406985,26.3350464 C93.4061882,26.3350464 93.4055241,26.3350464 93.4045944,26.3350464 L84.1536724,26.3479994 C83.6844458,26.3486603 83.2435083,26.5310607 82.9122739,26.8617604 C82.5809067,27.192328 82.3988208,27.631675 82.3994848,28.0985142 L82.4148911,39.0400244 C80.582477,38.6231471 78.8328051,37.9346518 77.1969535,36.9823369 C76.9928207,36.8635123 76.7866957,36.7487851 76.5788441,36.6372301 C76.4978285,36.5937448 76.4154847,36.552903 76.333805,36.5104751 C76.2073675,36.4447845 76.0811957,36.3786974 75.95343,36.3156503 C75.8516957,36.2654242 75.748766,36.2178415 75.6462347,36.1693335 C75.5374613,36.1179178 75.4288207,36.0659733 75.3192503,36.016408 C75.2076878,35.9660497 75.0951957,35.9180704 74.9828363,35.8696947 C74.8801722,35.8255485 74.7775081,35.781138 74.67418,35.7387101 C74.5586331,35.6912595 74.4424222,35.6456595 74.3260785,35.6003237 C74.2228831,35.5601428 74.119555,35.5202262 74.0158284,35.4816313 C73.90068,35.4388069 73.7850003,35.3974364 73.669055,35.3568589 C73.5602816,35.3186606 73.4513753,35.2813874 73.3419378,35.2450395 C73.2309066,35.2081629 73.1196097,35.1720794 73.0077816,35.1370532 C72.8886487,35.0996479 72.7689847,35.0639609 72.6491878,35.0286704 C72.5462581,34.9985347 72.4434612,34.968399 72.3400003,34.9398494 C72.20493,34.9024441 72.0691956,34.8674179 71.9333284,34.8327883 C71.8697112,34.8165309 71.8064925,34.7981587 71.7424768,34.7824299 L71.727469,24.0924472 L88.7531021,8.1306975 Z M93.2397741,40.388201 L85.1216099,39.4580913 L84.3567427,39.3704598 L84.3410708,28.2795928 L93.2227741,28.2671684 L93.2397741,40.388201 Z M120.300321,43.214217 L106.818392,55.2814546 C105.694931,56.1880373 104.347282,56.7877115 102.918884,57.0158441 L82.0390317,60.0111752 C82.0346489,60.0118361 82.0303989,60.012497 82.0260161,60.0131578 L82.0115395,60.0154048 C81.3789536,60.1150641 80.7202036,60.0730327 80.053352,59.8908967 L65.1928283,54.2904127 L65.1928283,36.1243943 L66.8536486,36.1243943 C68.2674377,36.1243943 69.6716643,36.2868364 71.0391018,36.6023361 C71.089969,36.6140996 71.1407034,36.6261275 71.1914378,36.6382875 C71.3594456,36.6786006 71.527055,36.7201033 71.6938675,36.7650425 C71.7084768,36.7690078 71.7229534,36.7732373 71.7375628,36.7772026 C71.9047737,36.8226705 72.0713206,36.8706497 72.2373362,36.9207437 C72.2670862,36.9297315 72.296969,36.9385872 72.3265862,36.9477072 C72.5032269,37.0020308 72.6790706,37.0587335 72.8539847,37.1182119 C72.8720472,37.1244241 72.8899769,37.1307685 72.9080394,37.1369807 C73.2723441,37.2621496 73.6330628,37.3986855 73.9892659,37.5464562 C74.0086566,37.5545189 74.0280472,37.5625815 74.0474378,37.5707763 C74.2250081,37.6450582 74.401516,37.7218514 74.5768285,37.8016846 C74.5814769,37.8037994 74.5862581,37.8060463 74.5909066,37.8082933 C74.7603753,37.8857473 74.9286488,37.9661092 75.0958597,38.0487181 C75.115516,38.0583668 75.135305,38.0678834 75.1549613,38.0776642 C75.3183207,38.1589514 75.4803519,38.2431463 75.6414535,38.3293239 C75.6718675,38.3455813 75.7021488,38.3622352 75.7325629,38.3786248 C75.8951254,38.466785 76.0567582,38.5566634 76.2167972,38.6498462 C78.5265395,39.9944541 81.0409458,40.8653497 83.6902895,41.2384774 C83.6986567,41.239667 83.7068911,41.2407244 83.7152583,41.2416496 L94.5900788,42.4876555 C94.6502429,42.4962468 94.7100085,42.5061599 94.7693757,42.5172625 C96.3702976,42.8165049 97.6338757,43.9937802 98.0566179,45.5268685 C98.1193054,45.7539437 98.1633992,45.9889494 98.187571,46.2299029 L98.2307351,46.6621124 L77.8493285,44.8850307 C77.3156879,44.8386375 76.8444691,45.2315914 76.7977191,45.7629315 C76.7508363,46.2944039 77.1459535,46.7629613 77.6798598,46.8094866 L99.2276257,48.6883425 C99.2328054,48.688739 99.2378523,48.6886069 99.2428992,48.6890034 C99.2479461,48.6893999 99.2528601,48.6901929 99.2580398,48.6905895 L103.321704,48.9175325 C103.339899,48.9185899 103.357962,48.9189864 103.376024,48.9189864 C103.395282,48.9189864 103.414274,48.9159464 103.433399,48.9147569 C103.455048,48.9134351 103.476696,48.9126421 103.498212,48.9099986 C103.527165,48.9062977 103.555454,48.9000855 103.583876,48.8938733 C103.604196,48.8893794 103.624649,48.8860751 103.644571,48.8802594 C103.675649,48.8714037 103.705532,48.8593759 103.735681,48.847348 C103.751884,48.8408715 103.768618,48.8359811 103.784556,48.8285793 C103.829845,48.8076958 103.873938,48.7836401 103.915907,48.7556192 L107.365313,46.4582999 C107.365446,46.4581677 107.365579,46.4580355 107.365712,46.4579033 L117.552696,39.6731387 C118.57761,38.9875512 119.976657,39.2565257 120.6714,40.2726807 C121.306509,41.2013365 121.14886,42.4642607 120.300321,43.214217 Z" id="Shape"></path>
                </g>
            </g>
        </g>
    </g>
</svg>