<?xml version="1.0" encoding="UTF-8"?>
<svg width="43px" height="58px" viewBox="0 0 43 58" version="1.1" xmlns="http://www.w3.org/2000/svg" xmlns:xlink="http://www.w3.org/1999/xlink">
    <!-- Generator: sketchtool 57.1 (101010) - https://sketch.com -->
    <title>1DA6B36B-A772-4C7F-99FB-789FFC994DC7</title>
    <desc>Created with sketchtool.</desc>
    <g id="Done" stroke="none" stroke-width="1" fill="none" fill-rule="evenodd">
        <g id="Nossas-ações" transform="translate(-385.000000, -424.000000)" fill="#000000" fill-rule="nonzero">
            <g id="Group-15" transform="translate(336.000000, 417.000000)">
                <g id="Group-11" transform="translate(0.000000, 7.000000)">
                    <g id="drop" transform="translate(49.000000, 0.000000)">
                        <path d="M39.123349,24.5472882 C38.8004536,24.0901889 38.1052339,23.2259416 38.0560432,23.1675083 C26.2954315,10.3706152 23.3738888,2.90729238 22.7589463,0.925508102 C22.5871959,0.372158872 22.0809969,0 21.4979747,0 C20.9150716,0 20.4088725,0.372158872 20.2371222,0.924919057 C19.6220606,2.90788143 16.700637,10.3722645 4.89190654,23.2259416 C4.89190654,23.2259416 4.19668682,24.0903068 3.87379138,24.5468169 C0.937360489,28.6951101 -0.401387106,33.7851691 0.10481194,38.8804116 C1.08862467,48.7888618 9.05834156,56.772665 19.0552367,57.8646374 C19.8867133,57.9552326 20.7123538,58 21.5323962,58 C26.8360521,58 31.8430157,56.1172932 35.8387723,52.577366 C40.3900377,48.5458216 43,42.7697604 43,36.7308672 C43,32.3436572 41.6589894,28.1309224 39.123349,24.5472882 Z M34.2744386,50.8493425 C30.1630304,54.4917635 24.8513945,56.1638277 19.3117903,55.5582891 C10.4120965,54.5863642 3.31494763,47.4764687 2.43880641,38.6538647 C1.98763418,34.109144 3.17976271,29.5723165 5.79556117,25.8772348 C6.08070011,25.4745634 6.68194548,24.7257689 6.67968247,24.7257689 C15.8553441,14.7402716 19.8304955,7.79860742 21.4979747,4.11707379 C23.1631909,7.79636904 27.1303621,14.7273126 36.2705303,24.6702808 C36.2739844,24.6747576 36.9072692,25.4610154 37.2015793,25.8772348 C39.4600607,29.0693895 40.6544523,32.8223155 40.6544523,36.730985 C40.6544523,42.1110899 38.328557,47.2573438 34.2744386,50.8493425 Z" id="Shape"></path>
                        <path d="M8.35585477,38 L6,38.2299099 C6.70281318,45.2999057 12.6098822,51.2199954 19.7387593,52 L20,49.6715234 C13.9576821,49.0110529 8.95227218,43.9933564 8.35585477,38 Z" id="Path"></path>
                    </g>
                </g>
            </g>
        </g>
    </g>
</svg>