<?xml version="1.0" encoding="iso-8859-1"?>
<!-- Generator: Adobe Illustrator 19.0.0, SVG Export Plug-In . SVG Version: 6.00 Build 0)  -->
<svg version="1.1" id="Capa_1" xmlns="http://www.w3.org/2000/svg" xmlns:xlink="http://www.w3.org/1999/xlink" x="0px" y="0px"
	 viewBox="0 0 512 512" style="enable-background:new 0 0 512 512;" xml:space="preserve">
<g>
	<g>
		<path d="M504.5,226.524c-4.143,0-7.5,3.358-7.5,7.501v8.794h-25.188c-0.568-2.202-1.261-4.368-2.073-6.482
			c0.61-0.733,1.09-1.595,1.392-2.562c13.852-44.379,1.797-92.348-31.46-125.186c-47.305-46.71-124.273-46.71-171.578,0
			l-6.576,6.494c-5.095,5.03-13.387,5.032-18.481,0l-6.576-6.494c-19.404-19.16-45.074-31.361-72.282-34.356
			c-26.788-2.948-54.108,3.06-76.945,16.916c-3.541,2.149-4.67,6.761-2.521,10.303s6.761,4.672,10.303,2.522
			c42.093-25.538,95.926-19.254,130.907,15.289l6.576,6.494c10.907,10.77,28.654,10.768,39.56,0l6.576-6.494
			c41.492-40.972,109.007-40.972,150.501,0c26.696,26.361,37.861,63.793,30.346,99.782c-1.921-2.262-4.018-4.392-6.278-6.367
			c-18.35-16.031-48.579-42.441-58.697-51.285c-4.86-4.245-12.282-4-16.891,0.55l-0.173,0.17
			c-10.827,10.691-11.731,27.624-2.104,39.388l15.381,18.79c0.536,0.655,0.627,1.369,0.27,2.122
			c-0.219,0.462-0.771,1.236-2.016,1.236h-87.69c-12.146,0-22.027,9.8-22.027,21.845c0,2.408,0.395,4.726,1.124,6.894
			c-11.455,0.762-20.538,10.247-20.538,21.797c0,12.046,9.882,21.845,22.027,21.845h8.223c-0.732,2.173-1.129,4.495-1.129,6.909
			c0,11.557,9.095,21.046,20.56,21.798c-0.743,2.186-1.146,4.526-1.146,6.958c0,12.045,9.882,21.845,22.008,21.845l25.77,0.068
			c-19.877,17.101-41.114,32.795-63.305,46.769l-33.533,21.116c-4.275,2.692-9.8,2.692-14.075,0l-33.533-21.116
			c-22.171-13.962-43.441-29.675-63.285-46.749l33.179-0.088c12.146,0,22.027-9.8,22.027-21.845c0-2.431-0.402-4.771-1.146-6.958
			c11.465-0.752,20.56-10.241,20.56-21.798c0-2.414-0.396-4.737-1.129-6.909h8.223c12.146,0,22.027-9.8,22.027-21.846
			c0-11.549-9.083-21.034-20.538-21.796c0.729-2.168,1.124-4.486,1.124-6.894c0-12.045-9.882-21.845-22.027-21.845h-87.69
			c-1.244,0-1.797-0.774-2.016-1.236c-0.357-0.753-0.267-1.467,0.27-2.122l15.381-18.79c9.628-11.763,8.724-28.696-2.109-39.393
			l-0.161-0.159c-4.614-4.557-12.035-4.802-16.897-0.554c-10.117,8.842-40.347,35.253-58.695,51.284
			c-4.68,4.088-8.657,8.839-11.828,14.058c-10.808-37.932-0.102-79.285,28.446-107.473c2.947-2.91,2.978-7.659,0.067-10.607
			s-7.658-2.978-10.606-0.067c-34.888,34.449-46.336,86.207-29.165,131.859c0.338,0.9,0.831,1.697,1.438,2.372H15v-8.794
			c0-4.142-3.357-7.501-7.5-7.501S0,229.882,0,234.025v112.144c0,4.142,3.357,7.501,7.5,7.501s7.5-3.358,7.5-7.501v-11.67h35.37
			c15.261,0,30.542,3.562,44.19,10.3c9.73,4.804,20.423,7.733,31.281,8.599c0.784,0.725,1.713,1.591,2.685,2.497
			c2.378,2.218,4.837,4.512,6.409,5.89c21.454,18.803,44.594,36.057,68.777,51.286l33.532,21.116
			c4.566,2.876,9.797,4.313,15.03,4.313c5.231,0,10.466-1.438,15.03-4.312l33.533-21.116c27.423-17.269,53.429-37.09,77.295-58.912
			c0.173-0.158,0.336-0.321,0.49-0.491l0.767,0.002c13.139,0,26.296-3.067,38.049-8.87c13.648-6.738,28.93-10.3,44.19-10.3H497
			v11.669c0,4.142,3.357,7.501,7.5,7.501s7.5-3.358,7.5-7.501V234.025C512,229.882,508.643,226.524,504.5,226.524z M132.609,338.668
			c-10.848,0-21.709-2.531-31.408-7.32c-15.703-7.752-33.279-11.85-50.831-11.85H15v-61.679h31.328c3.733,0,6.899-2.747,7.425-6.444
			c1.507-10.583,6.804-20.314,14.916-27.401c17.292-15.108,45.137-39.435,56.754-49.588c3.92,5.197,3.872,12.433-0.366,17.61
			l-15.381,18.79c-4.206,5.14-5.057,12.055-2.218,18.047c2.868,6.054,8.835,9.815,15.571,9.815h87.69
			c3.875,0,7.027,3.071,7.027,6.844c0,3.562-2.808,6.497-6.381,6.815l-77.684,0.094c-4.143,0.005-7.496,3.367-7.491,7.51
			c0.005,4.139,3.362,7.491,7.5,7.491c0.003,0,0.006,0,0.009,0l76.377-0.093c0.212,0.018,0.426,0.027,0.643,0.027h19.414
			c3.875,0,7.027,3.071,7.027,6.845s-3.152,6.844-7.027,6.844h-64.099l-32.55,0.065c-4.14,0.008-7.489,3.368-7.485,7.508
			c0.004,4.139,3.36,7.493,7.5,7.493h67.513c3.875,0,7.027,3.071,7.027,6.844c0,3.773-3.152,6.844-7.027,6.844l-67.346,0.131
			c-4.142,0.013-7.489,3.382-7.476,7.525c0.014,4.135,3.368,7.477,7.499,7.477c0.009,0,0.017,0,0.025,0l47.883-0.065
			c3.875,0,7.027,3.071,7.027,6.844c0,3.773-3.152,6.844-7.047,6.844L132.609,338.668z M497,319.498h-35.37
			c-17.552,0-35.128,4.097-50.831,11.85c-9.699,4.789-20.561,7.32-31.389,7.32l-49.009-0.13c-3.875,0-7.027-3.071-7.027-6.844
			c0-3.773,3.152-6.844,7.027-6.844h15.378l32.515,0.065c0.005,0,0.01,0,0.015,0c4.135,0,7.491-3.348,7.5-7.485
			c0.009-4.142-3.343-7.507-7.485-7.516l-67.336-0.131c-3.875,0-7.027-3.071-7.027-6.844c0-3.773,3.152-6.844,7.027-6.844h67.638
			c4.14,0,7.496-3.354,7.5-7.493c0.004-4.139-3.346-7.5-7.485-7.508l-32.689-0.065h-64.084c-3.875,0-7.027-3.071-7.027-6.845
			s3.152-6.844,7.027-6.844h18.848c0.129,0.007,0.26,0.01,0.39,0.01l77.2,0.055c0.002,0,0.003,0,0.005,0
			c4.14,0,7.497-3.355,7.5-7.495c0.003-4.142-3.353-7.503-7.495-7.506l-76.63-0.055c-0.134-0.007-0.269-0.011-0.403-0.011
			c-3.875,0-7.027-3.07-7.027-6.844s3.152-6.844,7.027-6.844h87.69c6.736,0,12.703-3.761,15.571-9.815
			c2.839-5.992,1.988-12.907-2.218-18.047l-15.381-18.79c-4.239-5.18-4.287-12.418-0.367-17.611
			c11.618,10.154,39.463,34.481,56.756,49.588c8.111,7.086,13.408,16.818,14.915,27.401c0.525,3.697,3.691,6.444,7.425,6.444H497
			V319.498z"/>
	</g>
</g>
<g>
</g>
<g>
</g>
<g>
</g>
<g>
</g>
<g>
</g>
<g>
</g>
<g>
</g>
<g>
</g>
<g>
</g>
<g>
</g>
<g>
</g>
<g>
</g>
<g>
</g>
<g>
</g>
<g>
</g>
</svg>
