<?xml version="1.0" encoding="UTF-8"?>
<svg width="56px" height="58px" viewBox="0 0 56 58" version="1.1" xmlns="http://www.w3.org/2000/svg" xmlns:xlink="http://www.w3.org/1999/xlink">
    <!-- Generator: sketchtool 57.1 (101010) - https://sketch.com -->
    <title>02A6225F-2D2A-4B19-849E-B8752643C1C1</title>
    <desc>Created with sketchtool.</desc>
    <g id="Done" stroke="none" stroke-width="1" fill="none" fill-rule="evenodd">
        <g id="Nossas-ações" transform="translate(-298.000000, -608.000000)" fill="#000000" fill-rule="nonzero">
            <g id="Group-18" transform="translate(245.000000, 604.000000)">
                <g id="Group-16" transform="translate(0.000000, 4.000000)">
                    <g id="mask" transform="translate(53.000000, 0.000000)">
                        <path d="M54.2724058,11.6243555 C54.0838917,11.1084727 53.5531589,10.8018203 53.0137236,10.8984492 C52.4741754,10.9943984 52.0808725,11.4645156 52.0808725,12.0138164 C52.0808725,12.0252578 52.0613204,13.1834453 51.364338,14.3347227 C50.4147602,15.9031016 48.6658056,16.6983359 46.166411,16.6983359 C45.4806174,16.6983359 44.8051084,16.7459141 44.1409012,16.8380117 C45.1910651,15.1522734 46.1230121,12.8784922 46.9235191,10.0428359 C47.7653906,7.06036719 48.1411757,4.57373047 48.1567722,4.46928516 C48.2098907,4.11403516 48.0916738,3.75459375 47.8382873,3.50061719 C47.5849008,3.24664062 47.2259554,3.12826172 46.8718698,3.18127734 C46.5850299,3.22432422 40.2998692,4.18732813 35.7662625,6.51004688 C34.1897735,3.30985156 32.2385166,0.644570313 32.1017647,0.459242188 C31.8884996,0.170375 31.5513667,0 31.1929864,0 C30.8346061,0 30.4974732,0.170375 30.2843212,0.459242188 C30.1475693,0.644570313 28.1963124,3.30996484 26.6198234,6.51004688 C22.0862166,4.18732813 15.8010559,3.22432422 15.5142161,3.18127734 C15.1596784,3.128375 14.8011851,3.24664063 14.5477986,3.50061719 C14.2944121,3.75459375 14.1761952,4.11403516 14.2293137,4.46928516 C14.2449102,4.57373047 14.6206952,7.06036719 15.4625668,10.0428359 C16.2629608,12.8784922 17.1949077,15.1522734 18.2451846,16.838125 C17.5808644,16.7459141 16.9054685,16.6983359 16.2196748,16.6983359 C13.7602887,16.6983359 12.0267046,15.9277969 11.0670681,14.4082422 C10.3293992,13.2400859 10.3052134,12.0189141 10.3051003,12.0139297 C10.3051003,11.4646289 9.91191049,10.9943984 9.37224922,10.8985625 C8.83292701,10.8025 8.30208115,11.1085859 8.11368003,11.6244687 C6.9674508,14.7623594 6.3863119,18.0546523 6.3863119,21.4099297 L6.3863119,24.3639648 C6.01617773,24.2275742 5.61654584,24.1529219 5.19973521,24.1529219 L3.44693802,24.1529219 C1.54631319,24.1529219 0,25.7028359 0,27.6078867 L0,32.8950625 C0,34.7144727 1.41069151,36.2088789 3.19309944,36.3396055 L3.19309944,56.8671875 C3.19309944,57.4928398 3.69908132,58 4.32328011,58 C4.94747889,58 5.45346077,57.4928398 5.45346077,56.8671875 L5.45346077,36.3394922 C5.77929186,36.3155898 6.09303001,36.2470547 6.38766811,36.1383047 C6.41648772,39.2697383 7.89725043,42.089875 10.4618564,43.8866289 C12.1066083,45.0389258 13.9923148,45.6285547 15.9109095,45.6285547 C17.0156611,45.6285547 18.1312624,45.4330312 19.2179311,45.0367734 C19.2281027,45.0332617 19.2440383,45.0275977 19.2658508,45.0191016 C19.2874372,45.0115117 19.3091367,45.0033555 19.3307232,44.9945195 C20.0236369,44.7294414 22.4040234,43.8088047 24.9237612,42.7225508 C28.875664,41.0186875 33.4073494,41.0183477 37.3574439,42.721418 C39.1730791,43.504418 41.0670359,44.2592109 43.1502979,45.0303164 C44.439834,45.5033789 45.7772898,45.6944844 47.1254823,45.5976289 C47.7480989,45.5529961 48.2166718,45.0109453 48.1722557,44.3868789 C48.1276135,43.7629258 47.5867091,43.2937148 46.9643186,43.3377812 C45.9368713,43.4110742 44.914962,43.2650547 43.9301225,42.9038008 C41.887547,42.1477617 40.029643,41.4073555 38.2505126,40.6402148 C33.7334065,38.6925703 28.550398,38.6927969 24.0306925,40.6412344 C21.5335583,41.7177461 19.1744192,42.6294336 18.5107771,42.8831836 C18.510438,42.8832969 18.510099,42.8834102 18.5097599,42.8835234 C18.4993623,42.8871484 18.4890776,42.8907734 18.478906,42.8947383 C18.4706557,42.8968906 18.4757415,42.895418 18.4739332,42.8966641 C18.4670391,42.8992695 18.460145,42.9019883 18.4533639,42.9048203 C16.1788753,43.7367578 13.7384762,43.4178711 11.7569304,42.0296094 C9.78035746,40.6447461 8.64667323,38.4636289 8.64667323,36.0450742 L8.64667323,32.8947227 L8.64667323,27.6077734 L8.64667323,21.4099297 C8.64667323,19.5014805 8.85089688,17.6152344 9.25572759,15.7713555 C10.2700647,17.2858125 12.2829165,18.9640742 16.2197878,18.9640742 C18.1492323,18.9640742 19.9578604,19.382875 21.6353876,20.2123203 C21.7999419,20.3055508 21.9648352,20.3910781 22.1299546,20.4702617 C23.7014708,21.3372031 25.1530749,22.5760469 26.4748212,24.183168 C27.643315,25.6038281 29.3628849,26.4185469 31.1924213,26.4185469 L31.1925343,26.4185469 L31.1928734,26.4185469 L31.1930994,26.4185469 L31.1937775,26.4185469 C33.0236531,26.418207 34.743788,25.6028086 35.913186,24.1814688 C37.2297334,22.5804648 38.6754605,21.3452461 40.2404217,20.4790977 C40.4166169,20.395043 40.592586,20.3038516 40.7679901,20.2038242 C42.4405444,19.380043 44.2435216,18.9640742 46.1666371,18.9640742 C50.1033954,18.9640742 52.1162472,17.2858125 53.1305843,15.7713555 C53.535415,17.6152344 53.7396387,19.5015938 53.7396387,21.4099297 L53.7396387,36.0453008 C53.7396387,36.8016797 53.6274117,37.5438984 53.4058963,38.2513398 C53.2190774,38.848332 53.5502204,39.4840664 54.1458256,39.6714336 C54.7410918,39.8584609 55.3756882,39.5266602 55.5625071,38.9297812 C55.8527375,38.0024609 56,37.0320937 56,36.0454141 L56,21.4099297 C56,18.0545391 55.418522,14.7621328 54.2724058,11.6243555 Z M18.4705426,42.89825 C18.4682823,42.8992695 18.4646657,42.9006289 18.4590148,42.9027813 C18.4575456,42.9033477 18.4559633,42.9039141 18.4543811,42.9044805 C18.4605971,42.9019883 18.4659089,42.8999492 18.4705426,42.89825 Z M5.19973521,34.0842891 L3.44693802,34.0842891 C2.79267643,34.0842891 2.26036133,33.5507344 2.26036133,32.8949492 L2.26036133,27.6077734 C2.26036133,26.9519883 2.79256341,26.4184336 3.44693802,26.4184336 L5.19973521,26.4184336 C5.8539968,26.4184336 6.3863119,26.951875 6.3863119,27.6077734 L6.3863119,32.8949492 C6.3863119,33.5507344 5.8539968,34.0842891 5.19973521,34.0842891 L5.19973521,34.0842891 Z M45.6372604,5.70722266 C45.4435475,6.67996875 45.1477792,8.01442187 44.7412532,9.45116797 C43.7064598,13.1086797 42.4364758,15.7665977 41.0687311,17.1376406 C40.1346368,18.0737969 38.2838529,19.3715469 35.4522983,18.9537656 C36.4579331,17.9377461 37.1917594,16.6765859 37.5363515,15.2853789 C37.877553,13.9076523 37.8188966,12.4932227 37.5042543,11.117875 C37.3059076,10.2509336 37.0231364,9.40426953 36.695497,8.57833594 C39.6063904,7.06183984 43.4996367,6.13599219 45.6372604,5.70722266 Z M31.1929864,3.12463672 C31.6840499,3.86742187 32.3169511,4.87166016 32.9448795,5.99948828 C34.0753992,8.03016797 35.2261492,10.2971523 35.4763712,12.6424141 C35.6024993,13.8247305 35.3974845,15.0352539 34.8153285,16.0775547 C34.2050309,17.1702656 33.3037118,17.8131367 32.3230541,18.5376836 L32.3230541,10.7097227 C32.3230541,10.0840703 31.8169592,9.57691016 31.1928734,9.57691016 C30.5687876,9.57691016 30.0626927,10.0840703 30.0626927,10.7097227 L30.0626927,18.563625 C28.8795066,17.888582 27.8712724,16.8689375 27.3267514,15.6075508 C26.7642605,14.3044766 26.7847167,12.8770195 27.1094176,11.517418 C27.8292297,8.50413672 29.501332,5.68354688 31.1929864,3.12463672 L31.1929864,3.12463672 Z M16.7485994,5.70722266 C18.8863361,6.13599219 22.7795825,7.06183984 25.6904758,8.57844922 C24.9734892,10.3858516 24.6107012,11.9699766 24.6107012,13.2979727 C24.6107012,15.4150859 25.4074786,17.4381758 26.8893715,18.9516133 C25.2002034,19.1876914 23.1167154,18.940625 21.3171287,17.1376406 C19.949271,15.7665977 18.6794,13.1086797 17.6446066,9.45116797 C17.2381936,8.01442187 16.9423123,6.67985547 16.7485994,5.70722266 L16.7485994,5.70722266 Z M28.21869,22.7418906 C27.775094,22.2024453 27.3142064,21.6990234 26.8382873,21.2295859 C27.7912556,21.1310313 28.6284935,20.9128516 29.2651242,20.6993164 C29.5589712,20.8540586 29.8296495,20.9787813 30.0628058,21.0771094 L30.0628058,23.9816406 C29.3500008,23.7617617 28.7079452,23.3366172 28.21869,22.7418906 Z M34.1688651,22.7400781 C33.6791579,23.3354844 33.0365371,23.7611953 32.3231671,23.9813008 L32.3231671,21.065668 C32.5488642,20.9672266 32.8110661,20.8430703 33.0958716,20.6905938 C33.7386054,20.9080938 34.5843196,21.1303516 35.5467814,21.2303789 C35.0716535,21.6991367 34.6116699,22.2016523 34.1688651,22.7400781 L34.1688651,22.7400781 Z" id="Shape"></path>
                        <path d="M41.1348356,27.0076135 C36.4665605,27.2031101 33.3657658,31.1156182 33.2360696,31.2821151 C32.9101434,31.7004286 32.9229556,32.2891579 33.2667516,32.6931395 C35.7001843,35.5509063 38.3960438,37 41.2792546,37 C46.1256653,37 49.598915,32.8560534 49.7444579,32.6795914 C50.1003918,32.2480656 50.0826345,31.621267 49.7028742,31.2103434 C47.0097121,28.2963685 44.1289737,26.8826568 41.1348356,27.0076135 Z M41.2792546,34.7605221 C39.3283052,34.7605221 37.4354605,33.8237954 35.6423043,31.9735193 C36.6249157,31.0065611 38.6753288,29.3455115 41.2449762,29.2442921 C43.2874097,29.1644587 45.3239991,30.0820389 47.3113624,31.9762065 C46.2223192,33.0020601 43.9639876,34.7605221 41.2792546,34.7605221 L41.2792546,34.7605221 Z" id="Shape"></path>
                        <path d="M20.1347133,27.007626 C15.4664922,27.2031224 12.3658457,31.1156256 12.2361511,31.2821223 C11.9101162,31.7004353 11.9229283,32.2891638 12.2668327,32.6931449 C14.7003496,35.5509081 17.3960656,37 20.2791307,37 C25.1255977,37 28.5989196,32.8560586 28.7444609,32.6797088 C29.1003907,32.2481835 29.0826335,31.6212738 28.7028776,31.2104626 C26.0097466,28.2963795 23.1280301,26.8825576 20.1347133,27.007626 L20.1347133,27.007626 Z M20.2791307,34.7605249 C18.3282038,34.7605249 16.435381,33.8237994 14.6422455,31.9735256 C15.6249579,31.0065686 17.6753474,29.3455211 20.2448526,29.2443019 C22.2867007,29.1637967 24.3238284,30.0821595 26.3112811,31.9762128 C25.2223629,33.0020651 22.963945,34.7605249 20.2791307,34.7605249 Z" id="Shape"></path>
                        <path d="M52.9252266,42.6165677 C52.7181844,42.1108246 52.1195055,41.8662751 51.6164308,42.0741271 C51.111452,42.2827813 50.8659276,42.8778616 51.0742726,43.3826021 C51.2824173,43.8870417 51.8789917,44.135301 52.3830685,43.9250426 C52.8858425,43.7152856 53.1354758,43.1214084 52.9252266,42.6165677 Z" id="Path"></path>
                    </g>
                </g>
            </g>
        </g>
    </g>
</svg>