<?xml version="1.0" encoding="UTF-8"?>
<svg width="68px" height="61px" viewBox="0 0 68 61" version="1.1" xmlns="http://www.w3.org/2000/svg" xmlns:xlink="http://www.w3.org/1999/xlink">
    <!-- Generator: sketchtool 57.1 (101010) - https://sketch.com -->
    <title>32F6F381-1127-4800-9942-DAA8A60EEBB9</title>
    <desc>Created with sketchtool.</desc>
    <g id="Done" stroke="none" stroke-width="1" fill="none" fill-rule="evenodd">
        <g id="Nossas-ações" transform="translate(-742.000000, -605.000000)" fill="#000000" fill-rule="nonzero">
            <g id="Group-18" transform="translate(245.000000, 604.000000)">
                <g id="Group" transform="translate(471.000000, 0.000000)">
                    <g id="icons8-flying-stork-with-bundle" transform="translate(25.000000, 0.000000)">
                        <path d="M37.021484,0.992145044 C36.959284,0.992145044 36.8971662,0.996845352 36.835938,1.0078125 C23.064775,1.6276399 12,12.479215 12,26.435547 C12,27.214652 12.042103,27.98418 12.109375,28.746094 C11.532697,29.010952 10.864791,29.33481 10.082031,29.683594 C9.594491,29.900833 9.112011,30.101355 8.71875,30.240234 C8.325489,30.379113 7.97747,30.435547 8,30.435547 C5.666667,30.435547 4.949219,28.119141 4.949219,28.119141 C4.79447669,27.6532349 4.32444469,27.3685345 3.839856,27.4471951 C3.3552673,27.5258557 2.99942418,27.9446159 3,28.435547 C3,28.435547 3.0023,32.647072 5.933594,36.794922 C8.388667,40.26885 12.938934,43.669055 20.949219,44.685547 L17.15625,48.619141 L6.78125,54.78125 C6.999699,54.16656 7.213193,53.548875 7.505859,52.8125 C7.63561654,52.497988 7.59658091,52.1390822 7.40224275,51.8598198 C7.2079046,51.5805574 6.88492383,51.4192484 6.544922,51.431641 C6.14359196,51.4460241 5.78978843,51.6990703 5.646484,52.074219 C4.867444,54.034351 4.468576,55.429641 3.929688,56.623047 C3.390797,57.816452 2.7219568,58.856525 1.28125,60.291016 C0.889688982,60.6809592 0.888377505,61.3144936 1.27832074,61.7060547 C1.66826396,62.0976157 2.30179834,62.0989272 2.6933594,61.708984 C4.117729,60.290761 4.948352,59.072131 5.556641,57.832031 L18.292969,50.271484 C18.3697348,50.2257313 18.4400219,50.1698959 18.501953,50.105469 L23.5,44.921875 C24.305683,44.968509 25.131663,45 26,45 C33.791176,45 38.605532,41.130085 41.326172,36.736328 C43.734918,32.846269 44.608634,28.593407 44.886719,25.994141 C44.924692,25.994859 44.961929,26 45,26 C47.995464,26 50.486136,23.776051 50.923828,20.898438 L55.380859,20.664062 L54.025391,36.660156 L50.992188,39.693359 C49.728933,40.957661 48.583239,42.428451 48.197266,44.421875 C47.692268,47.0316 48.53483,49.721483 50.388672,51.601562 L50.390625,51.603516 L50.394531,51.605469 C52.652452,53.864537 56.100834,54.564374 59.060547,53.363281 C60.87344,52.628737 62.040081,51.272419 63.160156,50.152344 C65.333776,47.978724 68.671809,45.589106 68.976562,41.613281 L68.976562,41.611328 C69.302032,37.349305 66.149026,33.843991 62.302734,33.148438 L58.085938,20.521484 L68,20 C68.552,20 69,19.552 69,19 C69,18.448 68.552,18 68,18 L56.695312,18 C56.6295284,17.9888079 56.5627898,17.9842278 56.496094,17.986328 C56.4515679,17.9879218 56.407198,17.9924893 56.363281,18 L50.648438,18 C49.819767,15.676489 47.599948,14 45,14 C41.888912,14 39.316195,16.396642 39.029297,19.435547 L39,19.435547 C39,21.150273 38.515266,24.001578 37.685547,26.294922 C37.270687,27.441594 36.764374,28.455081 36.255859,29.113281 C35.747345,29.771481 35.317611,30 35,30 C34.669,30 34.514714,29.943 34.259766,29.800781 C34.004818,29.658559 33.669092,29.398153 33.193359,29.083984 C32.336162,28.517901 31.039451,27.87087 28.851562,27.541016 C28.315179,25.554782 28,23.492107 28,21.435547 C28,13.589017 31.750099,7.204664 37.597656,2.802734 C37.5989616,2.8014356 37.6002636,2.80013359 37.601562,2.798828 C37.6108005,2.79182568 37.6199165,2.78466327 37.628906,2.777344 C37.6462748,2.7642278 37.6632111,2.75054853 37.679688,2.736328 C37.9865645,2.46073859 38.0927774,2.02502186 37.9471483,1.63912696 C37.8015193,1.25323207 37.4339226,0.996321678 37.021484,0.992145044 Z M33.892578,3.330078 C29.05542,7.92793 26,14.137911 26,21.435547 C26,26.514609 27.645993,31.533569 30.152344,35.53125 C30.3420906,35.834201 30.6790709,36.0128823 31.0363049,35.9999639 C31.393539,35.9870455 31.7167329,35.7844907 31.8841017,35.4686257 C32.0514705,35.1527606 32.0375768,34.7715918 31.847656,34.46875 C30.934934,33.012939 30.151087,31.395981 29.527344,29.691406 C30.800543,29.976511 31.513081,30.37302 32.089844,30.753906 C32.483486,31.013863 32.828386,31.294019 33.285156,31.548828 C33.741927,31.803637 34.331,32 35,32 C36.182389,32 37.127655,31.255237 37.837891,30.335938 C38.548126,29.416637 39.104313,28.248391 39.564453,26.976562 C40.364254,24.765914 40.83361,22.296628 40.949219,20.322266 C40.9836711,20.2183476 41.0008263,20.1094774 41,20 C41,17.779625 42.779625,16 45,16 C47.220375,16 49,17.779625 49,20 C49,22.220375 47.220375,24 45,24 C44.724277,24 44.457295,23.972262 44.201172,23.919922 C43.9169798,23.8566939 43.6193428,23.920445 43.3859807,24.0945286 C43.1526186,24.2686122 43.0067002,24.5357448 42.986328,24.826172 C42.9797635,24.8623513 42.9751992,24.8988651 42.972656,24.935547 C42.832641,27.086217 42.080611,31.717851 39.625,35.683594 C37.169389,39.649337 33.146824,43 26,43 C15.235833,43 10.135063,39.275275 7.566406,35.640625 C6.614344,34.293457 6.091595,33.018228 5.714844,31.867188 C6.344997,32.203899 7.097137,32.435547 8,32.435547 C8.51203,32.435547 8.906401,32.293933 9.384766,32.125 C9.86313,31.956067 10.382524,31.738777 10.896484,31.509766 C11.505334,31.238473 11.887533,31.056071 12.375,30.826172 C12.433693,31.170497 12.494271,31.513853 12.566406,31.853516 C12.940861,33.617158 14.368582,36.278994 15.152344,37.53125 C15.3420906,37.834201 15.6790709,38.0128823 16.0363049,37.9999639 C16.393539,37.9870455 16.7167329,37.7844907 16.8841017,37.4686257 C17.0514705,37.1527606 17.0375768,36.7715918 16.847656,36.46875 C16.209418,35.449006 14.734983,32.433858 14.523438,31.4375 C14.180798,29.82412 14,28.152411 14,26.435547 C14,14.572826 22.580262,5.210414 33.892578,3.330078 Z M23,11 C22.4477153,11 22,11.4477153 22,12 C22,12.5522847 22.4477153,13 23,13 C23.5522847,13 24,12.5522847 24,12 C24,11.4477153 23.5522847,11 23,11 Z M20,14 C19.4477153,14 19,14.4477153 19,15 C19,15.5522847 19.4477153,16 20,16 C20.5522847,16 21,15.5522847 21,15 C21,14.4477153 20.5522847,14 20,14 Z M25,14 C24.4477153,14 24,14.4477153 24,15 C24,15.5522847 24.4477153,16 25,16 C25.5522847,16 26,15.5522847 26,15 C26,14.4477153 25.5522847,14 25,14 Z M17,17 C16.4477153,17 16,17.4477153 16,18 C16,18.5522847 16.4477153,19 17,19 C17.5522847,19 18,18.5522847 18,18 C18,17.4477153 17.5522847,17 17,17 Z M46,18 C45.4477153,18 45,18.4477153 45,19 C45,19.5522847 45.4477153,20 46,20 C46.5522847,20 47,19.5522847 47,19 C47,18.4477153 46.5522847,18 46,18 Z M57.111328,23.916016 L60.162109,33.050781 C59.488071,33.117258 58.80835,33.272028 58.136719,33.529297 C57.391675,33.81432 56.769374,34.212103 56.203125,34.648438 L57.111328,23.916016 Z M61.134766,35.009766 C61.385122,35.017993 61.632435,35.042565 61.876953,35.082031 C64.811167,35.555633 67.230869,38.216296 66.982422,41.458984 C66.762206,44.341958 64.084109,46.400266 61.746094,48.738281 C60.568169,49.916206 59.585701,50.99231 58.308594,51.509766 C56.108307,52.402673 53.486673,51.870338 51.808594,50.191406 C50.415967,48.775715 49.783609,46.748654 50.160156,44.802734 C50.442183,43.346158 51.261457,42.25512 52.408203,41.107422 L55.734375,37.779297 C56.785107,36.728565 57.672957,35.847371 58.851562,35.396484 C59.611123,35.105535 60.383696,34.985084 61.134766,35.009766 Z M61,36 C58.250421,36 56,38.250421 56,41 C56,43.749579 58.250421,46 61,46 C63.749579,46 66,43.749579 66,41 C66,38.250421 63.749579,36 61,36 Z M19,38 C18.4477153,38 18,38.4477153 18,39 C18,39.5522847 18.4477153,40 19,40 C19.5522847,40 20,39.5522847 20,39 C20,38.4477153 19.5522847,38 19,38 Z M31,38 C30.4477153,38 30,38.4477153 30,39 C30,39.5522847 30.4477153,40 31,40 C31.5522847,40 32,39.5522847 32,39 C32,38.4477153 31.5522847,38 31,38 Z M61,38 C62.668699,38 64,39.331301 64,41 C64,42.668699 62.668699,44 61,44 C59.331301,44 58,42.668699 58,41 C58,39.331301 59.331301,38 61,38 Z M23,39 C22.4477153,39 22,39.4477153 22,40 C22,40.5522847 22.4477153,41 23,41 C23.5522847,41 24,40.5522847 24,40 C24,39.4477153 23.5522847,39 23,39 Z M27,39 C26.4477153,39 26,39.4477153 26,40 C26,40.5522847 26.4477153,41 27,41 C27.5522847,41 28,40.5522847 28,40 C28,39.4477153 27.5522847,39 27,39 Z" id="Shape"></path>
                    </g>
                </g>
            </g>
        </g>
    </g>
</svg>