<?xml version="1.0" encoding="UTF-8"?>
<svg width="52px" height="45px" viewBox="0 0 52 45" version="1.1" xmlns="http://www.w3.org/2000/svg" xmlns:xlink="http://www.w3.org/1999/xlink">
    <!-- Generator: sketchtool 57.1 (101010) - https://sketch.com -->
    <title>CF5E1A99-5498-47DD-891B-70A3E602C04A</title>
    <desc>Created with sketchtool.</desc>
    <g id="Done" stroke="none" stroke-width="1" fill="none" fill-rule="evenodd">
        <g id="Nossas-ações" transform="translate(-1117.000000, -621.000000)" fill="#000000" fill-rule="nonzero">
            <g id="Group-18" transform="translate(245.000000, 604.000000)">
                <g id="Group-8" transform="translate(845.000000, 17.000000)">
                    <g id="icons8-santas-hat" transform="translate(27.000000, 0.000000)">
                        <path d="M23.7190753,0 C16.8663982,0 12.1799795,5.01648026 9.22526042,11.2071271 C6.43156237,17.0604066 5.02877321,24.0648487 4.44124352,29.659871 C2.87115768,29.7896707 1.66780608,30.9939388 1.28011065,32.4252099 C1.28010996,32.4259244 1.28010996,32.4266389 1.28011065,32.4273534 C0.903849808,33.8206676 0.270621325,37.7180133 0.07194005,39.132765 C-0.0476019158,39.9881623 0.0614424417,40.8200488 0.4866537,41.4865185 C0.911867017,42.1529883 1.59737457,42.5607322 2.31689456,42.7641487 C3.5234758,43.1052113 10.9470129,45 21.6539711,45 C32.3632216,45 39.9094063,43.0452373 40.9677732,42.7705793 C41.6904908,42.5830259 42.3887555,42.1876822 42.850912,41.5122432 C43.3127013,40.8373387 43.4505338,39.9042285 43.2063797,38.9977134 L43.2063797,38.9955699 C43.0774121,38.5157952 42.8440144,37.12095 42.6308588,35.7822022 C42.4175689,34.4425917 42.2296063,33.1723921 42.0278322,32.4252099 C41.8638968,31.8162205 41.6475399,31.11768 41.0735672,30.5323452 C40.5353748,29.9835472 39.7217253,29.6855791 38.7799479,29.6491522 C35.6777731,23.0415926 34.6096974,18.8840151 34.6687824,16.6927873 C34.6992458,15.562913 34.979256,15.0169895 35.2866215,14.7184639 C35.5939859,14.4199383 36.0409942,14.2650351 36.7254236,14.2682927 C37.2812093,14.2710728 38.1835307,14.4349771 39.1756181,14.6605851 C39.847041,17.5709118 42.4293913,19.7560976 45.5,19.7560976 C49.0770193,19.7560976 52,16.7947288 52,13.1707317 C52,9.54673463 49.0770193,6.58536585 45.5,6.58536585 C43.8326471,6.58536585 42.3115463,7.23338561 41.1582037,8.28744256 C36.7363544,3.60636871 30.7406656,0 23.7190753,0 Z M23.7190752,2.19512195 C30.1108069,2.19512195 35.6582449,5.55162915 39.7976887,10.019531 C39.4088554,10.7373776 39.1514587,11.5374776 39.0507812,12.3840033 C38.2250927,12.210536 37.4349148,12.0767027 36.7360023,12.0731707 C35.6908901,12.0682317 34.6015616,12.3426274 33.7864583,13.1342894 C32.9713551,13.9259502 32.5447232,15.1311007 32.5042315,16.632765 C32.4281891,19.4529973 33.5830484,23.5895104 36.5349931,29.96856 C35.6700987,30.1843152 34.6385661,30.4719234 33.2532547,30.7531438 C30.6061091,31.2905206 26.8704843,31.8292683 21.6539711,31.8292683 C16.4374578,31.8292683 12.7890457,31.2904471 10.1816412,30.7531438 C8.66329262,30.440261 7.55097557,30.1257527 6.59521482,29.906393 C7.16598177,24.4884863 8.55335661,17.6583205 11.1761065,12.1632048 C13.9476177,6.35641134 17.89892,2.19512195 23.7190752,2.19512195 Z M45.5,8.7804878 C47.906066,8.7804878 49.8333333,10.7330663 49.8333333,13.1707317 C49.8333333,15.6083971 47.906066,17.5609756 45.5,17.5609756 C43.093934,17.5609756 41.1666667,15.6083971 41.1666667,13.1707317 C41.1666667,10.7330663 43.093934,8.7804878 45.5,8.7804878 Z M4.71419271,31.8292683 C5.32061118,31.8292683 7.03119831,32.3451351 9.75,32.9053928 C12.4688016,33.4656505 16.2895677,34.0243902 21.6539711,34.0243902 C27.0183745,34.0243902 30.9190483,33.465577 33.6785486,32.9053928 C36.4380488,32.3452076 38.2256041,31.8292683 38.5958658,31.8292683 C39.2469263,31.8292683 39.4091869,31.9514488 39.5353194,32.0800785 C39.6614508,32.2087072 39.8022722,32.5022587 39.9373368,33.004001 C40.0464794,33.4081613 40.2781578,34.7904395 40.4916991,36.1316217 C40.7052414,37.4728039 40.9056678,38.785579 41.1180012,39.5743621 C41.1180005,39.5750766 41.1180005,39.5757911 41.1180012,39.5765056 C41.2283787,39.9852878 41.1634665,40.124902 41.0693357,40.2624812 C40.9752048,40.4000594 40.7649547,40.557218 40.430338,40.6440549 C39.3740371,40.9181257 32.1043872,42.804878 21.6539711,42.804878 C11.2012626,42.804878 3.87613102,40.9262005 2.90087893,40.6504855 C2.52948226,40.5454873 2.38755996,40.4219777 2.30631505,40.2946365 C2.22507025,40.1672952 2.14740662,39.9426421 2.21744792,39.441454 C2.40010008,38.1408399 3.12503306,33.9155133 3.37060544,33.0061456 L3.36848958,33.0061456 C3.56054313,32.2971212 4.06482158,31.8292683 4.71419271,31.8292683 Z" id="Shape"></path>
                    </g>
                </g>
            </g>
        </g>
    </g>
</svg>