<?xml version="1.0" encoding="UTF-8"?>
<svg width="59px" height="59px" viewBox="0 0 59 59" version="1.1" xmlns="http://www.w3.org/2000/svg" xmlns:xlink="http://www.w3.org/1999/xlink">
    <!-- Generator: sketchtool 57.1 (101010) - https://sketch.com -->
    <title>64A8E7C6-1961-498E-96CE-45C630308483</title>
    <desc>Created with sketchtool.</desc>
    <g id="Done" stroke="none" stroke-width="1" fill="none" fill-rule="evenodd">
        <g id="Nossas-ações" transform="translate(-932.000000, -607.000000)" fill="#000000" fill-rule="nonzero">
            <g id="Group-18" transform="translate(245.000000, 604.000000)">
                <g id="Group-12" transform="translate(652.000000, 3.000000)">
                    <g id="rocking-horse" transform="translate(35.000000, 0.000000)">
                        <path d="M52.2284006,40.0790806 C51.5337312,34.6101613 48.9158743,30.4497097 46.5730303,26.7726774 C44.8011475,23.9920645 43.2452784,21.5445161 42.8979437,19.0845968 C43.0149907,19.0341613 43.1291829,18.9913387 43.2481332,18.9323387 C46.8699301,17.1204677 53.3598553,16.1774194 53.4255159,16.1679032 L54.2419903,16.0508548 L54.2419903,11.4193548 C54.2419903,9.66458065 53.7176577,8.65587097 50.6858539,7.64620968 L41.8711652,5.24243548 L41.8711652,0 L38.0647574,0 C31.2436748,0 25.6939323,5.54980645 25.6939323,12.3709677 L25.6939323,17.1290323 C25.6939323,20.1770484 26.3077155,22.732129 27.442025,24.7219516 L27.4410734,24.7295645 L27.446783,24.7305161 C28.1052916,25.8829194 28.9341369,26.8488065 29.9314157,27.5977258 L14.129114,27.5977258 L12.5732448,18.2652581 C12.3724568,17.0557581 11.3361623,16.1774194 10.110499,16.1774194 C8.73353098,16.1774194 7.6134955,17.2974677 7.6134955,18.6744516 L7.6134955,27.5967742 L5.71029163,27.5967742 L5.71029163,35.2096774 L8.09215128,35.2096774 C6.79702104,38.7839355 6.67426439,43.4611129 6.66474837,48.1287742 C5.29253838,47.0743871 3.95744087,45.7697258 2.647085,44.1310484 C2.31973394,43.7218548 1.80586889,43.5781613 1.34243875,43.7646774 C0.0653889541,44.2795 -0.0259648317,47.3360806 0.00448643021,47.6672419 C1.03507133,59 18.8538176,59 29.50034,59 C49.0747918,59 59,55.1583387 59,47.5806452 C59,44.4260484 57.7591111,40.7318871 52.2284006,40.0790806 L52.2284006,40.0790806 Z M52.3387865,11.4193548 L52.3387865,14.413129 C50.4098893,14.7357258 45.5357842,15.6616452 42.397401,17.2299032 C39.5549661,18.6497097 38.1170955,16.0499032 37.9648392,15.7520484 L36.2624234,16.6037419 C36.8952386,17.8693871 38.5767193,19.7107581 41.0546907,19.5527903 C41.515266,22.3562419 43.1948435,25.0112419 44.9695811,27.7966129 C47.1506527,31.2205161 49.581044,35.0850161 50.2937939,39.9763065 C47.2106036,40.0524355 44.725971,42.5770645 44.725971,45.6774194 C44.725971,47.4997581 45.5843159,49.1260645 46.9184618,50.1718871 C44.8839369,50.6914677 41.5932974,51.4108871 37.5166347,51.8752742 C41.6151842,46.1475161 42.3859818,40.3483871 39.7186416,35.2096774 L42.8227671,35.2096774 L42.8227671,34.2580645 C42.8227671,30.7361452 40.0726375,27.8508548 36.6078549,27.6196129 C33.7549523,24.6115645 32.3551458,20.2484194 32.3551458,14.2741935 C32.3551458,8.7243871 36.1996176,6.70696774 39.8433014,6.66224194 L50.1339248,9.46664516 C52.3387865,10.2022419 52.3387865,10.5334032 52.3387865,11.4193548 L52.3387865,11.4193548 Z M23.0465757,35.2096774 L37.5309087,35.2096774 C40.7006948,40.3379194 39.8052374,46.1627419 34.9339871,52.1226935 C33.2192004,52.256871 31.3987859,52.3387097 29.50034,52.3387097 C28.5268512,52.3387097 27.5742977,52.345371 26.6407762,52.3529839 C22.3975832,52.3834355 18.6539812,52.4034194 15.2377302,51.7953387 C15.3538256,43.2707903 18.1800834,37.2537419 23.0465757,35.2096774 Z M36.9789796,5.133 C36.5631296,5.24433871 36.1691664,5.38517742 35.787574,5.54314516 L34.5761847,2.51320968 C35.1509523,2.3086129 35.7476067,2.15445161 36.3632932,2.05358065 L36.9789796,5.133 Z M34.107045,6.46716129 C33.9795303,6.5566129 33.8491609,6.64225806 33.7273558,6.73932258 L30.984839,4.6828871 C31.5510422,4.16045161 32.1733898,3.69987097 32.8442692,3.3116129 L34.107045,6.46716129 Z M32.3798875,8.10774194 C32.1210517,8.43985484 31.8917157,8.7986129 31.6823632,9.17354839 L28.5953666,7.93835484 C28.902734,7.28554839 29.2738588,6.67080645 29.7030312,6.09983871 L32.3798875,8.10774194 Z M30.9391621,10.9264194 C30.8135507,11.3356129 30.7022133,11.7543226 30.6260851,12.1968226 L27.6371034,11.5992097 C27.6846835,10.9578226 27.7903113,10.3345161 27.9482773,9.73024194 L30.9391621,10.9264194 Z M30.4586032,14.1038548 C30.4586032,14.1619032 30.4519419,14.2161452 30.4519419,14.2741935 C30.4519419,14.8622903 30.48049,15.4189839 30.5061833,15.9794839 L27.5971361,15.3970968 L27.5971361,13.5319355 L30.4586032,14.1038548 Z M30.6593912,17.9502742 C30.7250517,18.5602581 30.8078411,19.1540645 30.9077593,19.7288387 L27.7094252,19.1959355 C27.6466194,18.6049839 27.609507,17.9873871 27.6028458,17.3383871 L30.6593912,17.9502742 Z M31.3473994,21.7319839 C31.5158329,22.3600484 31.7071049,22.9662258 31.9250217,23.5467097 L28.6733979,23.0042903 C28.4240782,22.4456935 28.2185322,21.8385645 28.0558083,21.1829032 L31.3473994,21.7319839 Z M39.9679613,4.75806452 C39.5873205,4.75806452 39.2171474,4.77614516 38.854587,4.8085 L38.2741099,1.90322581 L39.9679613,1.90322581 L39.9679613,4.75806452 Z M32.8690109,25.6335968 C33.1935071,26.2388226 33.5484546,26.8145484 33.939563,27.358871 C32.3608554,27.0115323 31.0619188,26.2711774 30.0579787,25.1654032 L32.8690109,25.6335968 Z M9.51669937,18.6744516 C9.51669937,18.3470968 9.78314792,18.0806452 10.110499,18.0806452 C10.4026408,18.0806452 10.6481541,18.29 10.6966858,18.5764355 L12.2002168,27.5967742 L9.51669937,27.5967742 L9.51669937,18.6744516 Z M7.6134955,29.5 L36.1615536,29.5 C38.4596722,29.5 40.3819081,31.1377258 40.8234514,33.3064516 L7.6134955,33.3064516 L7.6134955,29.5 Z M10.1514179,35.2096774 L19.4190691,35.2096774 C15.6678543,38.3271613 13.5153307,43.9978226 13.3440424,51.3880484 C11.6806422,50.9503065 10.0971766,50.3051129 8.56509744,49.4039355 C8.56509744,44.1757742 8.59174229,38.809629 10.1514179,35.2096774 Z M29.50034,57.0967742 C19.5037617,57.0967742 2.77269646,57.0967742 1.90007748,47.4940484 C1.87438423,47.2152258 1.92767394,46.7613065 2.01141491,46.3378387 C9.04470481,54.3818226 16.8564051,54.3228226 26.6550502,54.2552581 C27.5828621,54.2485968 28.5316092,54.2419355 29.50034,54.2419355 C40.7378073,54.2419355 49.1252267,51.5555323 49.758042,51.347129 C49.9797653,51.3728226 50.2062465,51.3870968 50.4355826,51.3870968 C52.5348165,51.3870968 54.2419903,49.6799032 54.2419903,47.5806452 C54.2419903,45.4813871 52.5348165,43.7741935 50.4355826,43.7741935 L49.4839806,43.7741935 L49.4839806,45.6774194 L50.4355826,45.6774194 C51.4851995,45.6774194 52.3387865,46.5310161 52.3387865,47.5806452 C52.3387865,48.6302742 51.4851995,49.483871 50.4355826,49.483871 C48.3363487,49.483871 46.6291748,47.7766774 46.6291748,45.6774194 C46.6291748,43.5781613 48.3363487,41.8709677 50.4355826,41.8709677 C54.9804334,41.8709677 57.0967961,43.6847419 57.0967961,47.5806452 C57.0967961,53.8060968 47.5541319,57.0967742 29.50034,57.0967742 L29.50034,57.0967742 Z" id="Shape"></path>
                        <circle id="Oval" cx="40" cy="10" r="1"></circle>
                    </g>
                </g>
            </g>
        </g>
    </g>
</svg>