<?xml version="1.0" encoding="UTF-8"?>
<svg xmlns="http://www.w3.org/2000/svg" xmlns:xlink="http://www.w3.org/1999/xlink" width="611.999983pt" height="791.999983pt" viewBox="0 0 611.999983 791.999983" version="1.2">
<g id="surface30535">
<path style=" stroke:none;fill-rule:nonzero;fill:rgb(97.254944%,60.00061%,21.960449%);fill-opacity:1;" d="M 341.238281 760.457031 L 126.246094 760.457031 C 126.246094 760.457031 92.082031 753.976562 87.367188 718.046875 L 87.367188 581.984375 L 118.585938 581.984375 L 118.585938 713.335938 C 118.585938 713.335938 116.820312 725.703125 135.078125 728.058594 L 197.515625 728.058594 L 197.515625 610.84375 L 229.324219 610.84375 L 229.324219 726.882812 L 341.238281 726.882812 Z M 341.238281 760.457031 "/>
<path style=" stroke:none;fill-rule:nonzero;fill:rgb(97.254944%,60.00061%,21.960449%);fill-opacity:1;" d="M 234.035156 561.957031 L 130.429688 526.027344 L 234.035156 488.917969 Z M 110.339844 498.4375 C 84.425781 500.886719 87.367188 523.671875 87.367188 523.671875 C 84.425781 551.941406 109.753906 554.300781 109.753906 554.300781 L 341.238281 633.226562 L 341.238281 600.832031 L 268.789062 571.054688 L 268.199219 480.082031 L 341.238281 450.632812 L 341.238281 418.824219 Z M 110.339844 498.4375 "/>
<path style=" stroke:none;fill-rule:nonzero;fill:rgb(97.254944%,60.00061%,21.960449%);fill-opacity:1;" d="M 234.035156 174.675781 L 130.429688 138.746094 L 234.035156 101.636719 Z M 110.339844 111.15625 C 84.425781 113.609375 87.367188 136.390625 87.367188 136.390625 C 84.425781 164.664062 109.753906 167.019531 109.753906 167.019531 L 341.238281 245.945312 L 341.238281 213.550781 L 268.789062 183.773438 L 268.199219 92.800781 L 341.238281 63.351562 L 341.238281 31.542969 Z M 110.339844 111.15625 "/>
<path style=" stroke:none;fill-rule:nonzero;fill:rgb(0%,38.038635%,20.391846%);fill-opacity:1;" d="M 185.734375 407.042969 C 185.734375 407.042969 128.011719 415.289062 115.054688 407.042969 C 115.054688 407.042969 89.136719 434.140625 97.382812 488.917969 C 97.382812 488.917969 179.84375 485.972656 185.734375 407.042969 "/>
<path style=" stroke:none;fill-rule:nonzero;fill:rgb(52.941895%,77.255249%,25.097656%);fill-opacity:1;" d="M 219.898438 309.832031 C 149.832031 402.199219 94.011719 368.964844 130.429688 310.445312 C 114.210938 292.671875 116.476562 270.882812 130.21875 261.160156 C 140.710938 253.738281 157.882812 253.34375 178.628906 267.125 C 196.671875 279.113281 212.882812 297.785156 219.898438 309.832031 Z M 92.082031 256.253906 C 79.121094 283.351562 87.132812 357.566406 87.132812 357.566406 C 90.730469 401.742188 123.886719 401.742188 123.886719 401.742188 L 341.238281 401.742188 L 341.238281 368.757812 L 249.351562 368.757812 L 249.9375 296.308594 C 254.0625 217.96875 178.078125 213.257812 178.078125 213.257812 C 103.863281 213.257812 92.082031 256.253906 92.082031 256.253906 "/>
<path style="fill-rule:evenodd;fill:rgb(71.372986%,64.706421%,54.118347%);fill-opacity:1;stroke-width:0.2835;stroke-linecap:butt;stroke-linejoin:miter;stroke:rgb(96.078491%,96.470642%,96.470642%);stroke-opacity:1;stroke-miterlimit:22.925586;" d="M 521.389349 202.338049 C 356.912068 253.972065 223.685097 257.970742 146.261064 176.950806 L 200.664672 88.348745 C 254.009441 125.071804 326.072837 86.928654 446.780584 62.380178 C 483.005365 81.57217 506.710921 102.163492 530.487067 126.886365 C 463.564234 140.705263 434.365167 139.01112 393.2282 130.071189 C 383.598985 127.978423 378.956699 128.808886 389.395615 133.164663 C 459.196001 162.318054 502.039569 129.398514 557.896487 136.420076 C 568.435058 137.740512 579.347337 141.436071 582.079559 145.405682 C 599.261832 170.377694 562.55123 176.900978 543.969628 180.185458 L 502.625045 184.163374 L 505.328201 187.08245 C 517.021115 184.806983 526.30984 185.130863 535.69822 194.506786 C 539.281666 198.08608 540.091368 198.908238 544.472058 201.781639 L 609.991409 244.824518 C 579.060827 254.325011 553.16285 221.903749 521.389349 202.338049 Z M 521.389349 202.338049 " transform="matrix(0,-0.940741,-0.940741,0,585.999978,791.999983)"/>
<path style="fill-rule:evenodd;fill:rgb(71.372986%,64.706421%,54.118347%);fill-opacity:1;stroke-width:0.2835;stroke-linecap:butt;stroke-linejoin:miter;stroke:rgb(96.078491%,96.470642%,96.470642%);stroke-opacity:1;stroke-miterlimit:22.925586;" d="M 561.928383 184.723936 C 577.669803 181.655377 587.585527 174.164604 596.766291 161.417002 L 666.712008 216.339649 C 648.512419 246.232153 585.334973 196.64938 561.928383 184.723936 Z M 561.928383 184.723936 " transform="matrix(0,-0.940741,-0.940741,0,585.999978,791.999983)"/>
<path style="fill-rule:evenodd;fill:rgb(71.372986%,64.706421%,54.118347%);fill-opacity:1;stroke-width:0.2835;stroke-linecap:butt;stroke-linejoin:miter;stroke:rgb(96.078491%,96.470642%,96.470642%);stroke-opacity:1;stroke-miterlimit:22.925586;" d="M 654.99418 236.964189 C 638.526106 254.927097 597.127542 237.130282 541.179274 188.19527 L 553.744174 186.239531 C 599.598169 214.570764 632.335007 236.216773 650.115212 231.578639 C 652.041885 232.135049 655.446782 234.647199 654.99418 236.964189 Z M 654.99418 236.964189 " transform="matrix(0,-0.940741,-0.940741,0,585.999978,791.999983)"/>
<path style="fill-rule:evenodd;fill:rgb(64.706421%,46.273804%,27.450562%);fill-opacity:1;stroke-width:0.5669;stroke-linecap:butt;stroke-linejoin:miter;stroke:rgb(96.862793%,97.254944%,97.254944%);stroke-opacity:1;stroke-miterlimit:22.925586;" d="M 514.479899 185.579313 C 481.900849 176.892673 446.834564 195.515798 389.868978 233.84165 C 412.582132 286.621704 484.487741 259.85174 529.639995 208.342294 Z M 514.479899 185.579313 " transform="matrix(0,-0.940741,-0.940741,0,585.999978,791.999983)"/>
</g>
</svg>
